<svg width="1375" height="801" viewBox="0 0 1375 801" fill="none" xmlns="http://www.w3.org/2000/svg">
    <path
        d="M1214.36 800.71L1214.42 799.65C1214.79 792.483 1215.17 785.306 1215.58 778.12C1216.48 761.99 1217.41 745.31 1217.95 728.9C1218.36 716.76 1218.47 704.41 1218.58 692.46C1218.67 682.7 1218.76 672.6 1219.02 662.67C1219.17 656.67 1217.63 654.95 1211.84 654.47C1199.09 653.4 1187.68 647.68 1176.96 636.99C1173.9 634.229 1169.99 632.601 1165.87 632.38C1126.03 631.06 1085.29 630.18 1049.35 629.38H1048.54C1044.26 629.38 1042.97 630.21 1042.54 630.7C1031.4 644.7 1016.84 652.08 998.05 653.21C997.97 653.8 997.88 654.36 997.8 654.9C997.539 656.275 997.405 657.671 997.4 659.07C998.93 703.23 1000.56 748.7 1002.25 794.23C1002.34 795.411 1002.56 796.579 1002.92 797.71C1003.07 798.3 1003.23 798.89 1003.36 799.49L1003.62 800.7H997.7V799.7C997.14 789.226 996.56 778.753 995.96 768.28C994.58 743.76 993.16 718.4 992.23 693.43C991.64 677.76 991.88 661.81 992.12 646.43C992.2 641.236 992.266 636.05 992.32 630.87V630.63C992.32 626.52 992.39 624.05 987.77 622.63C985.08 621.79 983.6 615.49 983.77 612.4C986.99 566.99 990.43 522.91 993.36 485.78C994.8 467.61 996.36 449.55 997.98 430.42C998.68 422.28 999.39 413.98 1000.11 405.42L996.6 408.25C993.55 410.73 990.92 412.87 988.27 414.89C981.67 419.89 975.02 425.11 968.58 430.13C952.33 442.81 935.58 455.93 918.17 467.63C907.17 475.08 893.27 480.95 877.01 485.1C872.436 486.311 867.73 486.949 863 487C841 487 825.18 472.72 820.82 448.8C816.35 424.27 813.37 399.06 810.5 374.68L809.42 365.54C806.94 344.76 804.77 321.95 802.75 295.81C802.55 293.18 803.4 290.55 804.21 288.01C805.041 285.868 805.517 283.605 805.62 281.31C805.314 275.324 804.572 269.368 803.4 263.49C803.16 262.09 802.91 260.69 802.68 259.29C798.68 234.94 794.93 202.9 802.15 170.93C803.47 165.12 806.15 159.53 808.78 154.31C809.78 152.4 812.84 150.39 814.78 150.39C815.051 150.387 815.321 150.427 815.58 150.51C817.65 151.2 819.9 154.75 819.81 157.16C819.62 162.03 818.98 166.96 818.41 171.32C819.09 170.14 819.78 168.96 820.41 167.76C824.64 160.42 829 152.82 833.7 145.43C834.9 143.54 837.05 142.43 839.12 141.26C840.04 140.76 840.91 140.26 841.7 139.76L842.83 139L843.21 140.32C843.52 141.38 843.95 142.49 844.36 143.56C845.36 146.15 846.36 148.83 846.08 151.44C845.72 154.39 844.29 157.15 842.91 159.83C842.26 161.06 841.6 162.34 841.07 163.6C840.26 165.52 839.5 167.47 838.58 169.85L865.44 138.58L866.2 139.36C875.14 148.42 870.84 154.81 867.05 160.44C866.58 161.15 866.11 161.85 865.67 162.55C863.29 166.33 860.76 169.93 857.83 174.1L854.4 179.01C857.06 179.43 859.53 179.8 861.85 180.14C867.53 180.99 872.43 181.72 877.27 182.7C886.49 184.58 901.2 202.65 901.11 211.99C900.922 213.68 900.305 215.294 899.32 216.68C897.74 219.39 896.21 222.06 894.67 224.73C890.23 232.46 885.67 240.44 880.61 247.96C877.496 252.351 873.423 255.976 868.7 258.56C862.03 262.29 858.7 265.56 857.91 269.1C857.12 272.64 858.68 276.87 862.97 282.88C864.119 284.766 864.9 286.853 865.27 289.03C865.36 289.43 865.45 289.83 865.55 290.22C869.59 306.266 873.616 322.32 877.63 338.38C881.103 352.126 884.56 365.9 888 379.7C888.263 380.689 888.597 381.658 889 382.6C889.12 382.89 889.25 383.2 889.38 383.54C893.746 378.58 898.06 373.673 902.32 368.82C912.69 356.99 922.49 345.82 932.63 334.58C936.81 329.95 941 325.18 945.06 320.58C962.23 301.02 979.98 280.78 1002.06 265.44C1019.06 253.63 1034.24 246.91 1049.84 244.27C1051.41 244 1053.06 242.27 1054.51 240.74L1055.65 239.56C1056.02 239.067 1056.3 238.511 1056.47 237.92C1056.86 236.85 1057.27 235.75 1058.3 235.44C1064.51 233.55 1066.7 228.58 1069.01 223.32C1070.37 220.22 1071.79 217.01 1074.08 214.44C1075.15 213.25 1074.47 208.25 1072.93 205.94C1066.58 196.43 1059.69 187.02 1053.04 177.94L1048.04 171.16C1047.51 170.331 1046.72 169.702 1045.8 169.37C1030.91 166.61 1027.21 154.85 1023.62 143.48L1023.04 141.64C1021.53 137.206 1019.77 132.865 1017.75 128.64C1016.92 126.81 1016.05 124.91 1015.24 123.02C1007.47 104.84 1000.73 85.3698 1010.99 64.8198C1011.53 63.7298 1011.29 61.7398 1010.81 60.2398C1007.39 49.4698 1010.19 39.4598 1018.69 32.0398C1019.69 31.1998 1020.69 30.3098 1021.69 29.3998C1028.83 23.0198 1036.92 15.7998 1044.69 15.7998H1045.29C1056.29 15.7998 1066.8 12.3598 1076.92 9.02979C1087.04 5.69979 1097.45 2.27979 1108.43 2.27979C1109.91 2.27979 1111.43 2.34979 1112.86 2.46979L1116.09 2.74979C1124.93 3.32842 1133.73 4.40345 1142.45 5.96979C1147.38 6.96979 1150.92 9.15978 1152.45 12.1798C1153.64 14.5798 1153.55 17.3498 1152.2 20.4398L1202.79 62.6198L1202.14 63.3898C1200.82 64.9498 1199.48 66.4998 1198.14 68.0598C1194.85 71.8498 1191.45 75.7798 1188.38 79.8698C1186.42 82.456 1185.1 85.4728 1184.54 88.6698C1183.62 94.5698 1182.83 100.59 1182.06 106.42C1180.81 115.97 1179.52 125.85 1177.62 135.42C1176.91 139 1174.32 142.12 1171.83 145.13C1170.66 146.49 1169.56 147.908 1168.54 149.38L1167.63 150.7C1166.4 152.379 1165.32 154.17 1164.42 156.05C1161.54 162.73 1158.67 169.55 1155.89 176.14C1153.23 182.46 1150.47 189 1147.71 195.4L1147.41 196.1C1144.41 202.99 1142.27 207.97 1149.09 214.81C1153.53 219.26 1156.5 225.19 1159.38 230.93C1160.98 234.13 1162.64 237.43 1164.52 240.43C1166.15 242.886 1168.55 244.738 1171.34 245.7C1178.89 247.98 1186.67 250.01 1194.2 251.97C1197.98 252.95 1201.76 253.95 1205.55 254.97C1226.05 260.52 1242.1 270.25 1253.27 283.89C1287.53 325.76 1320.63 367.21 1351.63 407.07C1357.75 414.94 1362.18 424.26 1366.47 433.27C1367.53 435.49 1368.58 437.7 1369.66 439.88C1378.73 458.35 1375.82 476.17 1361.47 490.06C1331.69 518.88 1300.53 547.27 1270.4 574.72L1264.4 580.17C1262.25 582.17 1259.31 583.06 1256.46 583.97C1254.43 584.533 1252.48 585.314 1250.62 586.3C1249.01 587.24 1247.81 589.3 1246.62 591.22C1246.29 591.79 1245.96 592.35 1245.62 592.88C1244.42 594.75 1243.14 596.62 1241.9 598.43C1238.73 603.07 1235.45 607.85 1233.46 612.98C1232.3 615.71 1230.91 618.334 1229.29 620.82C1226.52 625.37 1223.89 629.67 1223.81 635.58C1223.26 671.89 1222.24 708.8 1221.25 744.49C1220.86 758.27 1220.49 772.05 1220.12 785.83C1220.04 788.97 1220.06 792.17 1220.12 795.27C1220.12 796.75 1220.12 798.27 1220.12 799.7V800.7L1214.36 800.71ZM1180.47 631.86C1191.25 643.6 1202.84 649.06 1217.7 649.42V627.42L1180.47 631.86ZM998.24 646.75H999.67C1014.77 646.75 1028.11 639.89 1035.67 628.31L998.21 624.86L998.24 646.75ZM988.24 617.64C989.69 617.85 990.98 618.06 992.18 618.24C994.89 618.67 997.03 619 999.18 619.18C1007.61 619.88 1016.18 620.66 1024.45 621.4C1044.52 623.21 1065.27 625.09 1085.71 626.1C1104.71 627.04 1120.55 627.48 1135.48 627.48C1166.09 627.48 1193.01 625.48 1217.78 621.48C1219.62 621.08 1221.41 620.438 1223.08 619.57C1223.66 619.3 1224.25 619.03 1224.85 618.77L1224.54 617.62L1222.91 617.75C1221.17 617.89 1219.37 618.04 1217.59 618.14C1215.81 618.24 1213.8 618.39 1211.95 618.54C1208.68 618.8 1205.28 619.08 1201.95 619.08C1200.28 619.087 1198.61 619.007 1196.95 618.84C1194.64 618.61 1192.72 616.53 1190.87 614.52C1190.13 613.694 1189.35 612.906 1188.53 612.16L1187.7 611.45L1188.49 610.68C1189.2 610.01 1189.88 609.29 1190.56 608.58C1192.14 606.777 1193.94 605.178 1195.91 603.82C1197.26 603.091 1198.74 602.645 1200.27 602.51C1196.98 601.99 1194.37 601.57 1192.2 600.34C1189.41 598.77 1184.59 594.41 1185.31 591.66C1185.82 589.66 1186.16 587.75 1186.53 585.66C1187.08 581.594 1188.15 577.617 1189.73 573.83C1192.95 566.74 1197.73 566.25 1201.88 565.83C1203.55 565.716 1205.2 565.379 1206.79 564.83C1207.45 564.58 1208.1 564.35 1208.73 564.13C1212.37 562.87 1214.73 562.04 1214.73 557.02C1214.73 549.54 1214.73 542.02 1214.73 534.56C1214.73 472.48 1214.73 408.29 1204.4 345.7C1204.29 344.733 1204.35 343.755 1204.58 342.81C1204.65 342.43 1204.72 342.05 1204.76 341.68L1204.85 340.86L1209 340.5L1209.14 341.43C1209.56 344.243 1209.97 347.053 1210.38 349.86C1211.38 356.86 1212.45 364.06 1213.69 371.11L1213.81 371.8C1214.39 375.11 1215.04 378.8 1216.98 380.8C1233.45 396.91 1250.37 413.13 1266.73 428.8C1274.98 436.72 1283.23 444.643 1291.48 452.57C1292.01 453.184 1292.67 453.686 1293.4 454.044C1294.13 454.403 1294.93 454.613 1295.74 454.66C1297.49 454.66 1299.44 453.66 1301.74 452.55C1309.65 448.762 1317.77 445.423 1326.06 442.55L1330.89 440.77C1331.26 440.644 1331.64 440.579 1332.03 440.58C1333.02 440.647 1333.99 440.87 1334.91 441.24C1335.42 441.423 1335.94 441.58 1336.46 441.71L1336.38 443.71C1320.77 445.79 1307.38 452.53 1295.48 464.33C1290.82 468.866 1286.4 473.639 1282.24 478.63C1271.04 492.26 1259.9 506.02 1249.12 519.33L1237.64 533.5C1239.16 535.98 1240.64 538.29 1242.11 540.5C1245.53 545.77 1248.49 550.32 1250.57 555.4C1252.74 560.69 1253.91 566.24 1255.15 572.12C1255.6 574.27 1256.07 576.48 1256.59 578.68L1256.95 578.56C1257.61 578.399 1258.24 578.114 1258.79 577.72C1267.55 569.633 1276.33 561.563 1285.12 553.51C1309.82 530.86 1335.35 507.44 1359.81 483.74C1370.06 473.81 1372.4 459.95 1366.23 445.74L1365.64 444.39C1362.19 436.39 1358.64 428.18 1354.1 420.71C1331.53 383.43 1302.96 349.82 1275.32 317.31C1268.32 309.05 1261.04 300.51 1253.99 292.03C1242.19 277.86 1228.4 268.12 1212.99 263.08C1201.52 259.33 1189.74 256.08 1179.35 253.27C1175.24 252.15 1171.35 251.07 1167.64 250.03C1164.52 252.54 1161.79 254.94 1159.15 257.28C1153.75 262.05 1149.09 266.17 1143.64 268.67C1132.91 273.681 1121.21 276.295 1109.37 276.33C1097.81 276.25 1086.38 273.87 1075.75 269.33C1067.86 266.04 1061.75 258.74 1058.75 254.68C1056.32 251.34 1054.2 250.04 1051.21 250.04C1049.95 250.067 1048.69 250.221 1047.46 250.5C1024.81 255.2 1004.46 266.75 987.08 284.81C966.52 306.15 946.34 328.54 926.82 350.21C916.45 361.72 905.72 373.62 895.06 385.21C890.51 390.21 889.06 394.51 889.96 400.21C890.409 403.761 890.51 407.349 890.26 410.92C890.2 412.46 890.13 414.05 890.13 415.6V416.6L885.42 416.55V415.55C884.94 374.67 873.42 336.14 862.22 298.88L859.22 288.7L807.76 293.33C808.42 300.16 809.06 307.15 809.68 313.91C811.16 330.08 812.68 346.8 814.68 363.24L815.68 371.33C818.99 398.12 822.41 425.82 827.61 452.7C830.9 469.7 845.61 481.62 863.38 481.62C866.533 481.618 869.674 481.245 872.74 480.51C884.41 477.73 896.61 474.51 906.2 467.97C922.67 456.81 938.9 444.68 954.59 432.97C964.85 425.31 975.45 417.39 986.02 409.8C998.78 400.66 1003.74 391.52 1002.62 379.23C1002.45 375.927 1002.66 372.616 1003.24 369.36C1003.4 368.24 1003.55 367.13 1003.67 366.02C1004.32 360.3 1005.02 354.49 1005.67 348.87L1006.67 340.87L1010.97 341.4L988.24 617.64ZM1193.24 611.48C1193.77 611.74 1194.3 612.04 1194.81 612.33C1195.97 613.139 1197.3 613.669 1198.7 613.88H1198.85C1200.6 613.77 1202.36 613.69 1204.13 613.62C1210.96 613.32 1218.03 613.01 1224.21 610.81C1230.18 608.415 1235.08 603.943 1238.01 598.22C1244.08 585.22 1244.07 571.22 1238.01 557.47C1234.13 548.74 1228.43 543.47 1219.68 540.68C1220.11 542.896 1220.23 545.161 1220.03 547.41C1219.82 551.8 1219.66 555.28 1225.03 557.49L1226.03 557.89L1225.59 558.83C1221.59 567.41 1214.04 568.83 1206.72 570.16C1203.44 570.624 1200.23 571.47 1197.15 572.68L1197.38 574.24L1224.95 572.08L1225.54 576.72L1191.41 581.67V583.67L1194.12 584.28C1196.69 584.937 1199.31 585.408 1201.95 585.69C1202.95 585.76 1203.95 585.8 1205.03 585.8C1207.35 585.8 1209.74 585.63 1212.03 585.47L1213.88 585.34C1216.57 585.16 1219.32 584.87 1221.97 584.59L1225.53 584.22L1226.53 584.12L1226.85 589.46L1190.85 591.91L1190.71 593.2C1195.91 596.84 1201.86 597.35 1207.54 597.35C1208.99 597.35 1210.45 597.35 1211.9 597.28C1213.35 597.21 1214.9 597.22 1216.31 597.22C1219.22 597.168 1222.12 597.395 1224.99 597.9L1225.61 598.02L1226.74 602.47L1193.39 610.34L1193.24 611.48ZM1248.82 576.89C1249.82 574.33 1249.82 570.61 1249.02 566.26C1247.64 559.1 1243.62 550.32 1238.24 545.62L1248.82 576.89ZM1216.15 390.47C1216.15 392 1216.15 393.47 1216.15 394.86C1216.52 406.54 1216.91 418.206 1217.32 429.86C1218.38 460.5 1219.46 492.19 1219.93 523.37C1220.07 532.57 1222.93 537.14 1229.7 538.94C1241.23 518.52 1256.17 501.28 1270.62 484.61C1277.33 476.87 1284.27 468.87 1290.62 460.8L1216.14 390.32L1216.15 390.47ZM811.73 156.87C810.93 160.38 810.02 163.87 809.14 167.33C807.03 175.48 804.86 183.91 804.14 192.27C801.76 222.02 806.29 251.27 811.54 281.03C811.92 283.16 815.02 286.46 816.3 286.46C825.69 286.22 835.23 285.46 844.47 284.73C847.21 284.51 849.96 284.29 852.71 284.09C850.81 265.03 852.62 261.65 868.33 252.63C870.62 251.31 873.12 249.7 874.33 247.69C879.42 239.13 884.27 230.49 889.4 221.34C890.92 218.64 892.463 215.896 894.03 213.11C885.16 214.11 880.24 219.59 875.03 225.41L874.39 226.12C873.83 226.74 873.27 227.4 872.7 228.06C869.88 231.36 866.96 234.76 863.23 236.06C854.68 239.06 845.81 241.4 837.23 243.65C833.91 244.52 830.47 245.41 827.15 246.33L824.15 247.14L826.05 244.75C832.84 236.15 843.05 234.17 852.13 232.42C853.64 232.13 855.13 231.85 856.47 231.55C856.36 228.87 856.23 226.26 856.1 223.71C855.78 217.04 855.46 210.71 855.58 204.42C855.801 201.353 856.42 198.328 857.42 195.42C857.9 193.77 858.42 192.07 858.86 190.16L859.16 188.92L891.71 205.81C886.71 191.4 880.46 187.2 863.55 185.88C863.12 185.88 862.71 185.83 862.31 185.83C855.95 185.83 853.67 189.97 851.04 194.77C850.031 196.758 848.835 198.647 847.47 200.41L853.02 205.41L813 207.5L813.13 206.33C813.315 204.983 813.575 203.647 813.91 202.33C814.63 199.2 815.37 195.97 814.37 193.6C809.77 182.66 811.87 172.26 814.2 163.37C814.487 161.891 814.541 160.376 814.36 158.88C814.36 158.39 814.29 157.88 814.27 157.38L811.73 156.87ZM1064 238C1063.67 238.81 1063.29 239.63 1062.91 240.42C1061.85 242.71 1060.74 245.07 1061.1 246.92C1062.63 254.92 1068.43 261.18 1077.45 264.64C1087.81 268.762 1098.85 270.951 1110 271.1C1122.31 271.109 1134.41 267.966 1145.16 261.97C1150.92 258.79 1155.27 251.63 1158.76 245.05C1159.24 244.194 1159.53 243.247 1159.62 242.27C1159.71 241.293 1159.6 240.309 1159.28 239.38C1158.46 237.244 1156.88 235.49 1154.84 234.46L1142.07 252.76L1138.33 249.95L1138.93 249.15C1150.32 233.97 1151.93 225.85 1144.75 218.81C1137.46 230.5 1124.07 237.43 1108.66 237.43C1094.85 237.43 1082.23 231.79 1075.31 222.62C1069.13 231.84 1074.21 237.42 1080.05 243.84C1080.7 244.55 1081.35 245.26 1081.98 245.99L1080.85 247.57C1078.49 246.507 1076.27 245.164 1074.23 243.57C1073.23 242.88 1072.39 242.22 1071.45 241.63C1069.61 240.524 1067.69 239.567 1065.7 238.77L1064 238ZM1082.77 212.83C1084.45 226.71 1091.54 232.43 1106.77 232.43C1107.9 232.43 1109.11 232.43 1110.35 232.33C1128.79 231.33 1137.6 223.77 1137.88 208.54C1128.78 218.18 1119.12 223.07 1109.15 223.07C1100.78 223.06 1091.92 219.62 1082.77 212.82V212.83ZM868.54 199.22C867.029 199.258 865.593 199.886 864.54 200.97C857.73 207.23 857.47 218.71 863.77 226.53L881.39 208.19C875.59 202 871.59 199.21 868.54 199.21V199.22ZM1031.54 134.22C1030.2 134.22 1028.61 134.75 1028.28 138.85C1027.83 144.39 1030.35 150.73 1035.01 155.85C1039.43 160.68 1045.13 163.59 1050.27 163.63H1050.91L1051.17 164.22C1060.49 185.01 1078.51 205.42 1095 213.86C1100.28 216.56 1105.24 217.93 1109.75 217.93C1114.25 217.925 1118.64 216.527 1122.32 213.93C1144.74 198.43 1154.05 175.6 1161.12 146.08L1161.28 145.41L1161.96 145.32C1169.76 144.32 1174.96 135.22 1174.96 122.76C1174.96 120.67 1173.96 118.53 1172.96 116.26C1172.61 115.5 1172.25 114.73 1171.96 113.94L1162.17 117.51L1162.48 115.79C1164.7 103.67 1158.48 93.9098 1151.78 85.9198C1147.78 90.6098 1144.07 93.2998 1137.99 93.2998C1130.8 93.2998 1120.05 89.5598 1100.28 81.7098C1097.39 88.5598 1092.28 92.0298 1085.11 92.0298C1082.56 92.0001 1080.02 91.6644 1077.55 91.0298C1069.28 88.9598 1061.11 86.7398 1052.45 84.3898L1041.59 81.4598C1035.49 97.9298 1031.13 115.84 1039.37 135.29L1040.5 137.96L1037.97 136.56C1035.26 135 1033.1 134.18 1031.58 134.18L1031.54 134.22ZM839.84 148.85C828.79 159.28 820.3 177.1 820.43 190.36C820.51 199.26 822.72 200.48 825.11 200.48C826.78 200.48 829.05 199.75 831.86 198.29C826.66 183.08 832.08 169.04 837.33 155.47C838.21 153.26 839.07 151 839.88 148.81L839.84 148.85ZM866.27 148.42C848.2 159.59 834.91 185.42 839.37 200.2C846.02 194.33 849.74 187.07 851.04 177.46C851.64 173.09 853.96 168.89 856.49 164.63C858.88 160.63 861.62 156.71 864.27 152.95L867.08 148.95L866.27 148.42Z"
        fill="black" />
    <path
        d="M1116.56 795.46C1116.44 794.62 1116.29 793.79 1116.14 792.95C1115.76 791.103 1115.51 789.231 1115.39 787.35C1113.93 752.51 1112.55 717.8 1111.39 688.45V687.24C1111.29 683.24 1111.22 680.04 1105.63 679.31L1100.8 796.11L1095.55 796.23V795.23C1095.55 794.23 1095.55 793.33 1095.55 792.38C1095.55 790.38 1095.55 788.24 1095.55 786.16L1096.36 764.82C1097.36 739.4 1098.36 713.11 1099.53 687.26C1099.86 680.18 1099.53 674.87 1092.68 671.06C1090.03 669.59 1088.01 667.06 1085.68 664.2C1084.5 662.74 1083.29 661.2 1081.86 659.67L1083.1 658.13L1118.78 679L1118.66 679.68C1118.54 680.4 1118.33 681.24 1118.11 682.12C1117.41 684.566 1117.03 687.095 1117 689.64C1117.73 710.74 1118.6 732.19 1119.45 752.93C1119.86 762.93 1120.26 772.93 1120.66 782.93C1120.8 786.64 1120.77 790.99 1118.45 795.69L1117.04 798.56L1116.56 795.46Z"
        fill="black" />
    <path
        d="M1101.27 192.9C1096.8 193.006 1092.37 191.918 1088.46 189.748C1084.54 187.577 1081.28 184.402 1079 180.55L1078.22 179.29L1130.22 169.82L1130.14 171.09C1129.51 180.87 1121.43 189.03 1109.56 191.87C1106.85 192.532 1104.06 192.878 1101.27 192.9ZM1089.2 183.1C1093.29 185.93 1098.13 187.473 1103.1 187.53C1110.65 187.53 1117.39 183.8 1121.9 177.23L1089.2 183.1Z"
        fill="black" />
    <path
        d="M1095.3 162.8C1094.49 162.8 1093.71 162.8 1092.98 162.71C1090.75 162.52 1087.98 157.8 1088.11 155.27C1088.36 152.216 1088.86 149.186 1089.59 146.21C1090.18 143.738 1090.63 141.234 1090.93 138.71C1091.14 136.64 1091.2 134.5 1091.26 132.44C1091.27 129.242 1091.53 126.049 1092.03 122.89L1092.64 119.6L1093.94 122.68C1097.94 132.22 1096.07 141.68 1094.1 151.68C1093.74 153.53 1093.36 155.43 1093.02 157.34H1108.66L1109.06 161.44L1108.06 161.54C1106.68 161.68 1105.3 161.86 1103.91 162.05C1101.06 162.485 1098.18 162.736 1095.3 162.8Z"
        fill="black" />
    <path
        d="M1112.26 104.52L1113.88 102.94C1116.64 100.23 1121.47 98.6802 1127.13 98.6802C1134.07 98.6802 1140.67 100.97 1144.33 104.68L1146.18 106.54L1112.26 104.52Z"
        fill="black" />
    <path
        d="M1050.38 115.16C1054.5 109.02 1062.52 105.16 1071.31 105.16C1074.36 105.156 1077.4 105.618 1080.31 106.53L1083.52 107.53L1048.87 117.37L1050.38 115.16Z"
        fill="black" />
    <path
        d="M1071.5 125.24C1072.28 125.229 1073.05 125.404 1073.74 125.753C1074.44 126.101 1075.04 126.611 1075.5 127.24C1076.28 128.237 1076.79 129.418 1076.98 130.67C1077.03 131.218 1076.9 131.767 1076.62 132.24C1076.06 133.182 1075.19 133.908 1074.17 134.302C1073.15 134.695 1072.02 134.733 1070.97 134.41L1069.97 134.24C1068.88 134.076 1067.85 133.65 1066.97 133C1066.92 132.966 1066.87 132.926 1066.82 132.88C1064.47 129.73 1066.98 125.23 1070.91 125.21L1071.5 125.24Z"
        fill="black" />
    <path
        d="M1129.94 119C1130.72 118.994 1131.49 119.172 1132.18 119.519C1132.88 119.867 1133.48 120.375 1133.94 121C1134.71 122.002 1135.22 123.181 1135.42 124.43C1135.47 124.978 1135.34 125.528 1135.06 126C1134.5 126.944 1133.63 127.67 1132.6 128.062C1131.58 128.454 1130.45 128.489 1129.4 128.16L1128.4 128C1127.32 127.834 1126.29 127.409 1125.4 126.76C1125.35 126.726 1125.3 126.686 1125.25 126.64C1122.9 123.48 1125.41 118.98 1129.34 118.97L1129.94 119Z"
        fill="black" />
    <path
        d="M260.78 146.26L281.78 155.37C281.78 155.37 290.78 136.48 315.93 126.63C343.93 115.63 347.85 86.0801 347.85 86.0801C347.85 86.0801 357.37 58.5601 363.85 89.2201C370.33 119.88 385.96 125.89 385.96 125.89L399.51 126.33L412.51 111.52L414.69 103.66C416.663 96.531 416.718 89.0073 414.85 81.8501L413.4 76.2601C413.4 76.2601 414.23 37.8601 386.17 29.8701C376.54 27.1301 381.1 16.4101 330.73 2.78009C323.46 0.780094 315.51 8.54009 307.92 9.89009C299.83 11.3301 287.53 8.55009 279.62 12.5601C265.08 19.9301 251.68 25.7701 240.62 36.1101C223.88 51.8101 218.73 63.9301 214.62 71.9001C213.14 74.7301 215.14 86.7101 215.48 89.9001V109.9C215.48 109.9 218.77 145.79 234.74 160.42C243.52 168.48 233.3 140.63 260.78 146.26Z"
        fill="black" />
    <path
        d="M161.78 703.61C158.3 735.61 156 767.34 156.78 799.22L159.38 799.71C159.989 797.519 160.44 795.286 160.73 793.03C162.22 766.75 163.59 740.45 165.07 714.17C165.294 711.653 165.651 709.149 166.14 706.67C172.14 704.76 177.24 703.03 182.4 701.6C183.921 701.324 185.486 701.424 186.96 701.89C230.05 712.67 273.96 714.01 317.96 712.52C354.36 711.3 390.73 709.3 426.58 702.2C431.29 701.27 435.91 699.91 441.36 698.56C446.15 731.93 446.05 765.48 445.8 799.03L448.59 799.15C449.06 796.93 449.99 794.69 449.91 792.48C448.79 762.07 447.41 731.67 446.44 701.25C446.28 696.25 448.44 691.25 448.44 686.25C448.61 637.25 448.54 588.25 448.55 539.25V514.92C450.22 517.75 451.13 519.34 452.09 520.92C460.65 534.92 467.95 549.99 478.09 562.81C498.87 589.18 520.94 587.56 540.36 560.02C558.67 534.02 567.18 505.24 567.48 473.63C567.81 438.63 568.21 403.54 569.2 368.51C570.072 339.425 573.911 310.505 580.66 282.2C585.5 261.66 600.16 251.69 617.75 244.2C621.75 242.51 626.09 241.78 630.21 240.39C634.53 238.93 639.21 236.48 637.52 231.39C636.37 228 632.38 224.14 628.94 223.23C616.11 219.84 603.51 221.6 591.69 227.89C590.13 228.71 588.61 229.6 586.49 230.79C586.1 228.51 585.81 226.79 585.49 225.07C582.28 205.96 570.08 196.27 552.27 193.3C543.99 191.92 533.63 193.3 526.42 197.35C514.59 204 502.57 211.67 496.99 225.64C494.29 232.4 493.8 239.54 497.76 244.75C511.41 262.7 509.21 284.63 514.28 304.7C516.98 315.38 514.58 325.55 510.7 337.04C509.53 333.73 508.7 331.59 508 329.37C497.44 293.17 473.29 271.74 436.79 263.56C415.13 258.7 393.503 253.7 371.91 248.56C369.76 248.05 366.08 246.1 366.21 245.33C366.79 242.7 368.04 240.264 369.84 238.26C374.55 232.71 380.46 227.98 384.33 221.94C399.07 198.94 405.21 173.86 400.8 146.57C400.32 143.64 399.59 140.57 399.99 137.71C400.48 134.2 401.12 128.79 403.31 127.79C410.56 124.53 410.23 116.98 413.9 111.84C417.79 106.39 417.99 99.7401 413.9 92.1001C412.82 94.5101 411.75 95.7101 411.96 96.6201C413.84 104.93 410.12 111.29 405.16 117.32C401.16 122.19 398.23 122.19 394.6 116.94C393.554 115.175 392.69 113.309 392.02 111.37C391.38 109.84 390.87 108.25 390.07 106.07C386.16 112.33 387.66 116.47 396.07 125.07C383.92 125.23 378.7 120 376.42 104.31L391.08 105.09C386.85 98.4401 380.52 100.27 375.08 100.09C372.36 92.6701 370.08 85.5301 367.13 78.6501C365.31 74.3401 361.97 69.5501 356.91 71.6501C352.79 73.3801 349.91 78.0701 346.61 81.6501C346.24 82.0501 347.05 83.5401 347.72 86.0501C350.18 82.7801 351.72 80.4801 353.55 78.3601C356.25 75.1801 359.74 74.0001 361.74 78.3601C364.862 85.438 367.495 92.7218 369.62 100.16C370.07 101.69 368.03 103.97 368.62 105.08L380.36 125.51L369.92 131.11L370.59 133.35L377.53 132.78C377.538 133.504 377.684 134.22 377.96 134.89C379.82 137.95 381.53 143.21 383.81 143.49C388.81 144.12 388.56 138.9 389.4 135.1C389.88 132.89 391.93 131.02 393.84 128.1C399 155.99 400.27 182.1 387.68 206.82C383.698 214.274 379.141 221.405 374.05 228.15C368.47 235.84 360.51 238.72 351.05 237.44C326.81 234.15 305.05 225.67 287.73 207.58C286.08 205.85 284.03 204.5 281.16 202.14C283.71 220.24 321.63 238.56 360.72 242.21C361.53 248.21 362.36 254.26 363.18 260.32L365.81 260.24L367.1 252.02L408.55 261.1C408.88 261.85 409.21 262.59 409.55 263.34C402 268.99 394.91 275.47 386.8 280.16C360.52 295.35 331.66 297.53 302.23 294.72C279.23 292.51 257.13 286.72 237.05 274.86C231.05 271.3 225.6 266.75 219.89 262.65L220.25 260.52L262.59 251.2C261.81 256.85 261.18 261.41 260.59 265.97L262.76 266.78C263.67 264.99 265.22 263.25 265.37 261.39C266.32 249.55 267.37 237.7 267.57 225.84C267.73 218.08 266.71 210.29 266.08 202.53C265.871 200.212 265.106 197.979 263.85 196.02C261.02 201.26 261.39 208.58 254.52 209.34V187.06L265.99 188.43C266.21 187.73 266.44 187.04 266.66 186.34C265.058 185.375 263.363 184.574 261.6 183.95C251.11 181.26 244.6 174.59 241.44 164.37C239.81 159.02 239.44 153 244.29 149.92C248.04 147.54 253.55 147.55 258.29 147.32C260.89 147.19 263.57 148.77 266.69 148.32C263.23 142.86 257.57 142.08 251.99 142.04C243.45 141.97 238.82 146.56 235.64 157.91C222.03 141.83 216.57 123.73 218.48 103L215.15 103.25C214.65 106.68 213.63 110.13 213.72 113.55C214.15 130.37 220.4 144.98 230.19 158.55C237.428 168.8 244.043 179.476 250 190.52C251.428 193.052 252.087 195.946 251.895 198.846C251.703 201.747 250.669 204.528 248.92 206.85C247.79 208.46 247.85 210.85 247.37 212.95C249.72 213.36 252.14 214.35 254.37 214.04C256.95 213.7 259.37 212.22 263.37 210.61C263.37 221.91 263.22 232.37 263.44 242.81C263.54 247.65 260.07 247.46 257.08 248.16C235.91 253.11 214.67 257.79 193.58 263.05C161.02 271.17 134.36 289.15 111.53 313.28C85.4298 340.87 64.5298 372.41 43.7398 403.94C42.1998 406.28 41.9598 411 43.2998 413.38C45.7898 417.79 44.2998 420.28 41.6698 423.54C27.4798 441.28 14.5598 459.79 5.1198 480.65C0.0297966 491.9 -0.6502 502.89 2.2798 514.65C8.1298 538.21 18.1098 559.98 30.1398 580.88C40.7498 599.34 52.1398 617.37 62.2198 636.1C69.5698 649.76 75.0798 664.4 81.9598 678.33C85.7698 686.05 89.7998 694.01 95.3498 700.46C104.54 711.12 119.65 712.46 129.75 702.86C137.93 695.09 145.28 695.94 153.92 700.15C156.4 701.38 159 702.38 161.78 703.61ZM447.62 368.55L445.51 368.23C445.05 370.54 444.21 372.85 444.18 375.17C443.79 407.92 443.18 440.67 443.26 473.41C443.49 540.51 444.26 607.6 444.51 674.7C444.57 694.4 444.07 694.7 424.2 698.19C374.86 706.9 325 709.27 275 708.31C246.8 707.76 218.75 705.38 191.31 698.31C189.148 697.826 187.129 696.847 185.41 695.45C181.05 691.51 177.41 686.78 172.79 683.15C163.93 676.15 162.68 672.83 166.37 660.97C169.81 662.13 173.26 663.27 176.69 664.45C180.37 665.7 183.95 667.6 187.69 668.12C193.69 668.96 200.01 669.99 205.84 668.93C214.65 667.34 216.38 661.32 211.09 653.68C216.66 648.16 214.01 643.46 209.02 639.47C203.15 634.79 197.02 630.47 191.02 626.06C195.68 626.58 200.44 627.89 204.94 627.31C207.75 626.94 211.64 624.13 212.37 621.64C213.1 619.15 211.03 614.96 208.84 613.15C203.658 609.013 198.101 605.371 192.24 602.27C184.91 598.27 177.31 593.46 168.79 602.27C168.79 596.72 168.74 592.61 168.79 588.51C169.33 550.26 170.25 512.02 170.3 473.78C170.3 453.42 168.88 433.06 167.96 412.7C167.86 410.7 166.79 408.7 166.18 406.62L163.77 407.01C163.77 409.13 163.36 411.34 163.84 413.33C165.46 420.06 162.63 424.62 157.57 428.67C145.57 438.24 133.85 448.1 121.87 457.67C118.77 460.15 115.17 462.01 111.76 464.18C95.6298 438.4 73.1998 420.67 47.5598 405.76C66.3798 377.47 85.2498 349.7 107.33 324.2C134.61 292.67 167.91 271.46 209.16 263.6C211.844 263.229 214.574 263.794 216.89 265.2C227.3 271.72 236.89 279.95 247.89 285.13C272.07 296.51 298.12 300.68 324.75 300.13C352.75 299.58 380.75 295.06 401.3 275.02C413.87 262.73 424.59 263.67 438.08 268.44C438.505 268.607 438.939 268.751 439.38 268.87C478.77 278.01 498.62 305.17 507.15 342.62C507.925 345.716 507.925 348.955 507.15 352.05C498.483 380.983 489.66 409.86 480.68 438.68C480.16 440.36 478.57 442.51 477.06 442.94C467.37 445.68 457.57 448 447.54 450.52L447.62 368.55ZM470.85 517.66L474.13 517.41C473.28 513.19 472.19 509 471.61 504.73C469.61 490.02 473.54 476.1 477.74 462.26C490.04 421.79 502.53 381.38 514.68 340.87C518.43 328.39 520.85 315.87 518.68 302.39C515.28 281.22 513.68 259.75 511.23 238.39C510.941 236.896 510.529 235.427 510 234L507.56 234.22V250L504.48 250.44C502.82 244.75 499.6 238.95 500 233.44C500.32 229.03 504.39 224.1 508.15 221.11C509.87 219.74 514.89 222.42 518.36 223.42C520.46 224.02 522.47 224.93 524.52 225.71C524.92 224.76 525.33 223.81 525.74 222.86L510.18 213.73C514.69 207.35 521.18 207.64 527.64 209.84C533.55 211.84 539.2 214.64 544.96 217.09L546.38 214.02L524.38 202.74C540.25 195.3 549.99 208.74 562.52 211.74C560.716 208.884 558.301 206.462 555.45 204.65C552.6 202.65 549.64 200.82 546.05 198.47C558.38 195.66 574.67 205.28 578.92 217.96C581.05 224.32 581.05 231.39 582.09 238.13C582.42 240.24 583.01 242.3 583.48 244.39C586.31 241.21 587.06 237.66 589.16 235.39C596.7 227.09 620 223.06 630 228C631.47 228.73 633.59 230.72 633.38 231.66C633.089 232.574 632.612 233.417 631.979 234.137C631.345 234.856 630.569 235.436 629.7 235.84C626.14 237.33 622.2 237.91 618.57 239.28C598.04 247.09 581.57 258.6 576.28 281.96C570.13 308.84 566.05 335.96 565.28 363.47C564.28 397.11 564.67 430.8 563.28 464.42C562.631 482.221 560.433 499.931 556.71 517.35C552.89 534.67 543.28 549.9 532.03 563.64C517.71 581.14 502.58 581.64 486.47 565.64C484.2 563.39 481.67 561.17 480.11 558.46C469.62 540.26 459.33 521.95 449.11 503.61C448.452 502.155 448.147 500.565 448.22 498.97C448.01 487.06 447.83 475.16 447.84 463.25C447.84 461.36 448.25 458.74 449.5 457.71C457.44 451.16 466.63 447.87 477.5 447.65C471.29 471.35 460.66 493.8 470.85 517.66ZM181.61 695.8C176.28 701.17 171.29 701.8 165.97 700.02C160.97 698.35 156.16 696.23 151.24 694.36C142.95 691.19 135.77 691.36 128.66 698.29C118.86 707.79 106.25 706.64 97.2198 696.29C94.1881 692.861 91.6625 689.015 89.7198 684.87C85.4298 675.52 82.4498 665.52 77.6098 656.5C65.2598 633.5 52.3598 610.86 39.3598 588.26C25.5198 564.19 12.7398 539.74 6.28981 512.42C3.92981 502.42 4.4098 493.2 8.5898 483.71C16.9798 464.71 28.4098 447.65 41.0898 431.35C45.3798 425.82 49.8198 420.35 54.2698 414.84C73.0798 426.84 89.4298 440.19 102.27 457.79L67.5998 496.87C73.1198 510.87 79.5998 524.04 83.5998 537.95C94.4998 575.79 104.96 613.71 122.54 649.19C122.68 649.48 122.33 650.02 122.2 650.45C110.58 656.3 101.66 668.89 104.98 677.77C110.87 664.16 118.34 653.52 133.29 651.77C134.03 656.62 136.53 656.17 139.68 652.64C141.68 650.42 143.68 648.23 145.49 645.88C151.7 637.76 159.95 634.79 169.17 638.77C182.56 644.55 195.45 651.48 208.51 658.01C209.36 658.43 209.78 659.69 210.51 660.73C206.51 665.92 201.21 666.53 196.07 665.36C188.264 663.659 180.611 661.318 173.19 658.36C165.42 655.17 159.11 655.67 153.48 662.22C150.84 665.3 147.76 666.55 143.26 665.22C136.34 663.22 131.26 666.81 127.68 672.94C129.99 673.04 131.92 672.09 133.97 671.62C137.34 670.84 141.32 668.96 144.11 670.02C158.4 675.48 169.33 686 181.61 695.8ZM127.48 648.29C126.436 646.777 125.517 645.181 124.73 643.52C115.29 618.26 105.44 593.13 96.6798 567.64C89.1098 545.64 85.9698 522.11 73.7598 501.64C73.0898 500.52 73.5098 497.92 74.4098 496.82C82.9398 486.41 91.6898 476.17 100.85 465.3C107.41 472.57 113.1 469.14 118.5 465.3C126.68 459.44 134.82 453.49 142.7 447.23C149.96 441.46 156.86 435.23 164.7 428.53C164.94 431.98 165.27 434.39 165.26 436.8C164.94 492.907 164.586 549.02 164.2 605.14C164.317 606.733 164.089 608.333 163.53 609.83C155.53 626.22 144.5 639.82 127.48 648.29ZM154.05 633.57C156 630.57 157.14 628.72 158.44 626.95C164.74 618.32 165.64 617.65 175.25 622.76C184.659 627.903 193.743 633.621 202.45 639.88C205.32 641.88 209.23 647.81 208.58 648.61C204.83 653.21 201.32 648.31 198 646.74C184.44 640.33 171.75 631.41 154.05 633.57ZM164.94 615.9C167.57 612.14 168.94 609.9 170.63 607.81C176.57 600.4 178.14 599.9 186.76 604.37C192.977 607.697 199.018 611.342 204.86 615.29C206.54 616.4 207.45 618.67 208.72 620.41C206.34 621.47 203.95 623.41 201.6 623.41C198.6 623.35 195.55 621.69 192.53 620.72C189.95 619.9 187.41 618.72 184.76 618.34C178.69 617.37 172.56 616.8 164.94 615.9ZM160.94 661.6C160.62 666.3 160.42 669.29 160.15 673.29L152.87 668.64C155.4 666.44 157.44 664.66 161 661.6H160.94Z"
        fill="black" />
    <path
        d="M336.64 110.09C338.28 101.77 339.64 94.9002 341 88.0202L338.5 87.2002C337.5 89.6102 336.22 91.9302 335.65 94.4302C334.17 100.91 331.77 105.37 323.77 105.64C319.02 105.8 314.3 108.69 309.77 110.69C308.27 111.35 307.24 113.08 306 114.33C306.32 114.83 306.64 115.33 306.95 115.83L327.85 108.61C324.93 117.75 319.6 123.21 311.64 126.15C301.71 129.83 291.94 134.05 285.43 142.91C283 146.21 281.78 150.4 280.01 154.18L282.11 155.38C282.94 154.82 284.27 154.38 284.53 153.66C288.62 141.55 298.53 135.77 309.44 131.84C319.44 128.26 327.05 122.5 332.44 113.4C333.46 111.58 336 110.6 336.64 110.09Z"
        fill="black" />
    <path
        d="M291.91 22.3799C289.71 20.3799 289.14 19.4299 288.46 19.3799C275.46 17.7099 262.69 18.0399 252.36 27.6799C247.7 32.0399 243.68 37.0899 239.46 41.9199C232.6 49.7599 225.46 57.1199 214.46 58.9199C213.77 59.0399 213.21 59.9899 211.23 61.7699C214.13 62.2299 215.94 63.1299 217.03 62.5799C223.27 59.4399 229.89 56.6499 235.3 52.3699C240.71 48.0899 245.05 42.6699 249.15 37.1999C257.76 25.7199 269.4 22.2699 283.01 23.0299C285.39 23.1099 287.8 22.6799 291.91 22.3799Z"
        fill="black" />
    <path
        d="M379.76 32.9C381.54 33.31 383.47 33.41 385.07 34.19C401.07 41.91 409.6 54.44 410.39 72.49C410.69 79.41 413.46 85.96 419.89 89.84C421.81 91 424.32 91.16 426.56 91.77C426.78 91.21 427 90.64 427.23 90.07C426.74 89.41 426.4 88.4 425.75 88.13C416.37 84.26 414.82 76.01 414.09 67.35C412.53 49.05 402.15 37.35 386.09 29.87C385.099 29.5362 384.072 29.3213 383.03 29.23L379.76 32.9Z"
        fill="black" />
    <path
        d="M314 10.59C316.34 10.1 318.47 10.17 320 9.25996C331.35 2.67996 341.68 4.85997 352.07 11.82C358.072 15.944 364.544 19.3379 371.35 21.93C375.04 23.28 379.77 22.09 383.97 21.57C385.05 21.43 385.91 19.47 386.54 17.41C372.72 22.46 363.37 14.22 353.7 7.69996C341.7 -0.380037 329.7 -1.51003 317.07 5.95997C316.111 6.55175 315.219 7.2458 314.41 8.02996C314.24 8.25996 314.32 8.84996 314 10.59Z"
        fill="black" />
    <path
        d="M405.14 94.69C404.14 94.26 403.08 93.7899 402.02 93.4099C394.18 90.5799 389.63 84.4098 385.52 77.6198C382.79 73.1398 380.08 68.5398 376.63 64.6198C371.54 58.8398 365.07 57.9998 358.17 62.0398C359.92 62.8498 361.17 64.04 362.29 63.86C369.61 62.86 373.81 66.9599 377.38 72.4499C381.24 78.3799 384.85 84.54 389.3 90C392.81 94.31 397.39 97.7999 403.42 97.3099L405.14 94.69Z"
        fill="black" />
    <path
        d="M337.27 134.89C331.32 130.79 322.03 131.19 316.1 136.19C315.1 137 314.91 138.69 314.34 139.97C315.728 140.025 317.119 139.938 318.49 139.71C319.944 139.178 321.343 138.508 322.67 137.71C323.26 140.34 323.17 143.06 324.43 144.81C325.95 146.91 328.53 149.25 330.81 149.44C332.25 149.55 334.54 146.14 335.47 143.91C336.6 141.14 336.7 138 337.27 134.89Z"
        fill="black" />
    <path
        d="M303.74 26.79C312.31 32.79 320.67 36.73 326.15 43.11C331.47 49.31 333.84 58.05 338.33 65.41C339.25 55.6 335.79 46.97 329.4 39.62C323.01 32.27 315.41 26.64 303.74 26.79Z"
        fill="black" />
    <path
        d="M360.69 172.08C363.41 169.76 367.04 167.91 368.57 164.98C370.1 162.05 370.85 156.41 369.3 155.11C361.55 148.63 361.3 140.89 363.23 132.19C363.43 131.3 362.78 130.19 362.47 129.02C356.91 133.44 356.19 145.92 360.73 152.02C366.96 160.36 366.95 160.36 359.5 168.57C359.25 168.84 359.31 169.41 359.22 169.84L360.69 172.08Z"
        fill="black" />
    <path
        d="M297.54 798.93C299.02 791.93 300.4 784.93 302.01 778.03C303.93 769.73 311.28 767.49 318.44 764.89C312.07 761.59 307.44 763.96 303.31 767.59C297.24 773 293 791.29 297.54 798.93Z"
        fill="black" />
    <path
        d="M335.26 190.22C343.56 201.58 368.26 200.92 377.55 188.61C369.61 190.66 363.04 193.5 356.37 193.74C349.7 193.98 342.93 191.61 335.26 190.22Z"
        fill="black" />
    <path
        d="M218.35 96.4898C217.35 90.2598 215.04 83.8498 215.8 77.8398C216.56 71.8298 220.38 65.9898 222.8 60.1598C219.07 59.8098 216.8 61.7498 213.58 68.1598C208.93 77.5798 210.33 89.7198 218.35 96.4898Z"
        fill="black" />
    <path
        d="M278 149.62C268.79 140.04 271.11 128.68 272.62 117.06C266.7 120.4 265.08 132.45 268.38 142.13C270.54 148.54 272.46 150.28 278 149.62Z"
        fill="black" />
    <path
        d="M567.4 139.22C564.092 148.702 562.382 158.668 562.34 168.71C567.08 165.21 570.56 144.44 567.4 139.22Z"
        fill="black" />
    <path
        d="M309.41 12.3799L290.41 1.37988C289.49 6.59988 293.09 9.16987 296.56 11.4299C298.412 12.7432 300.588 13.5258 302.853 13.6932C305.117 13.8606 307.385 13.4065 309.41 12.3799Z"
        fill="black" />
    <path
        d="M595.89 162.23L583.37 178.49L586.02 180.55C591.49 176.17 595.38 170.55 598.64 164.37L595.89 162.23Z"
        fill="black" />
    <path
        d="M540.06 173.49C541.65 168.78 537.84 158.68 533.16 155.21C531.64 160 535.43 170 540.06 173.49Z"
        fill="black" />
    <path
        d="M250.55 161.5L259.98 167.93L261.85 166.18C260.27 164.27 259.01 161.89 257.03 160.62C255.46 159.62 253.03 159.95 250.97 159.69L250.55 161.5Z"
        fill="black" />
    <path
        d="M252.56 184.78L253.22 211.07L262.85 208.04L264.33 198.7L266.77 186.34L252.7 184.48L252.56 184.78Z"
        fill="black" />
</svg>