<?xml version="1.0" encoding="UTF-8"?>
<svg id="Layer_1" data-name="Layer 1" xmlns="http://www.w3.org/2000/svg" viewBox="0 0 538.47 540.34">
  <defs>
    <style>
      .cls-1 {
        fill: #0039c8;
        stroke-width: 0px;
      }
    </style>
  </defs>
  <path class="cls-1" d="M225.3,529.53c3.1,3.1,6.26,6.15,9.46,9.12-40.7-5.19-78.58-19.41-111.55-40.6,13.77-13.13,31.11-24.31,51.02-32.83,14.32,23.06,31.39,44.63,51.07,64.31Z"/>
  <path class="cls-1" d="M348.12,460.69c-20.13,30.43-45.17,57.36-73.97,79.65-30.02-23.22-55.95-51.5-76.52-83.53,21.31-6.33,44.73-9.82,69.3-9.82,29.23,0,56.83,4.95,81.19,13.71Z"/>
  <path class="cls-1" d="M412.56,499.9c-29.16,18.21-62.01,31.01-97.19,37.03,2.58-2.41,5.13-4.89,7.64-7.4,18.19-18.19,34.16-38,47.78-59.12,16.16,8.13,30.3,18.11,41.77,29.49Z"/>
  <path class="cls-1" d="M125.22,331.38c5.88,39.69,18.4,77.76,36.99,112.87-13.16,5.85-25.5,12.85-36.74,20.93-8.16,5.86-15.56,12.14-22.15,18.78C46.47,439.79,7.71,373.45,0,297.92c38,14.51,80.25,25.77,125.22,33.46Z"/>
  <path class="cls-1" d="M398.15,334.56c-6.44,37.6-19.24,73.07-37.27,105.23-28.64-11.02-60.71-16.87-93.95-16.87-28.65,0-56.41,4.33-81.86,12.6-16.69-30.82-28.61-64.57-34.8-100.26,39.06,5.43,79.86,8.24,121.47,8.24s85.86-3.04,126.41-8.94Z"/>
  <path class="cls-1" d="M538.47,299.81c-8.29,75.95-48.01,142.48-105.87,186.27-7.1-7.42-15.19-14.43-24.21-20.9-7.91-5.68-16.35-10.83-25.26-15.41,20.36-36.89,33.93-77.16,40.07-119.24,41.15-7.32,79.98-17.64,115.27-30.72Z"/>
  <path class="cls-1" d="M225.3,27.51c-16.86,16.86-31.8,35.1-44.74,54.49-24.01-9.27-44.65-22.3-60.3-37.94C158.1,19.05,202.59,3.29,250.51,0c1.05.67,2.08,1.35,3.12,2.02-9.82,7.93-19.28,16.44-28.33,25.49Z"/>
  <path class="cls-1" d="M340.96,85.95c-22.71,7.35-48,11.47-74.63,11.47-21.67,0-42.44-2.72-61.66-7.7,19.33-27.72,42.79-52.37,69.48-73.02,25.49,19.71,48.01,43.07,66.81,69.25Z"/>
  <path class="cls-1" d="M414.72,41.67c-13.27,13.96-30.48,25.94-50.48,35.18-12.11-17.48-25.88-33.99-41.24-49.35-9.05-9.05-18.51-17.54-28.33-25.47-.69-.58-1.38-1.13-2.08-1.68,1.36.12,2.73.24,4.08.37,43.14,4.32,83.29,18.77,118.05,40.95Z"/>
  <path class="cls-1" d="M167.72,102.76c-22.92,40.09-37.72,84.33-43.56,130.63-42.75-8.46-81.92-20.66-115.63-36.24,15.51-55.52,48.25-103.85,92.11-138.84,7.1,7.44,15.2,14.43,24.22,20.91,12.97,9.31,27.38,17.2,42.85,23.54Z"/>
  <path class="cls-1" d="M400.29,236.87c-40.52,6.82-83.86,10.36-128.55,10.36s-84.68-3.27-123.83-9.58c5.66-45.77,20.71-88.68,43.15-126.73,23.61,6.93,49.07,10.57,75.27,10.57,31.11,0,61.18-5.11,88.37-14.8,23.72,38.88,39.65,83,45.59,130.19Z"/>
  <path class="cls-1" d="M530.69,199.1c-31.48,14.09-67.52,25.31-106.66,33.34-6.2-48.1-22.07-93.94-46.66-135.2,10.81-5.22,21-11.24,30.43-18.01,10.12-7.27,19.06-15.19,26.76-23.62,46.12,35.57,80.47,85.7,96.13,143.5Z"/>
  <g>
    <path class="cls-1" d="M35.74,235.73l-15.21,47.75-12.42-3.96,15.21-47.75,12.42,3.96Z"/>
    <path class="cls-1" d="M77.33,247.57l-2.64,9.67-7.46-2.04-10.55,38.67-12.57-3.43,10.55-38.67-7.43-2.03,2.64-9.67,27.47,7.5Z"/>
    <path class="cls-1" d="M120.7,257.4l-10.63,48.97-12.73-2.77,4.47-20.57-3.81-.83-4.47,20.57-12.73-2.77,10.63-48.97,12.73,2.77-3.8,17.51,3.81.83,3.8-17.51,12.73,2.77Z"/>
    <path class="cls-1" d="M166.38,265.11l-5.23,33.08c-.59,3.75-1.13,6.37-1.62,7.84-.49,1.48-1.46,2.92-2.91,4.33-1.46,1.41-3.23,2.37-5.33,2.88-2.1.51-4.48.56-7.15.14-2.96-.47-5.49-1.37-7.59-2.71-2.11-1.34-3.6-2.88-4.47-4.62-.87-1.75-1.27-3.51-1.2-5.28.07-1.78.55-5.46,1.43-11.04l4.63-29.29,12.87,2.04-5.87,37.11c-.34,2.16-.44,3.56-.3,4.2.14.64.57,1.01,1.28,1.13.81.13,1.39-.12,1.73-.75.34-.62.7-2.17,1.09-4.64l5.77-36.47,12.87,2.04Z"/>
    <path class="cls-1" d="M182.74,267.21l12.94,1.28c4.09.41,7.15,1.03,9.19,1.88s3.61,2.3,4.71,4.37c1.1,2.07,1.44,5.26,1.01,9.57-.29,2.91-.95,4.9-1.98,5.96-1.03,1.06-2.92,1.76-5.67,2.11,2.93.98,4.85,2.3,5.76,3.98s1.21,4.14.89,7.39l-.46,4.62c-.33,3.37-.97,5.83-1.9,7.37-.93,1.55-2.27,2.54-4.01,2.96-1.74.43-5.22.38-10.44-.13l-15-1.49,4.94-49.87ZM192.99,295.88l-1.38,13.95c1.83.12,3.03-.05,3.58-.52.55-.46.93-1.7,1.13-3.71l.46-4.65c.21-2.14.11-3.45-.29-3.95-.41-.5-1.57-.87-3.5-1.12ZM194.86,277.03l-1.1,11.09c.56.04.99.07,1.3.1,1.27.13,2.11-.11,2.53-.7.41-.59.76-2.37,1.06-5.32.16-1.56.12-2.67-.11-3.32-.23-.65-.56-1.09-1.01-1.3-.45-.21-1.33-.39-2.67-.54Z"/>
    <path class="cls-1" d="M279.62,287.76l-12.1-.13.04-3.71c.02-1.73-.12-2.84-.43-3.32-.3-.48-.82-.72-1.54-.73-.78,0-1.38.31-1.79.94-.41.64-.62,1.6-.63,2.91-.02,1.67.19,2.93.64,3.79.42.85,1.64,1.89,3.65,3.1,5.76,3.51,9.39,6.37,10.87,8.59,1.48,2.22,2.2,5.79,2.15,10.7-.04,3.57-.48,6.2-1.34,7.88-.85,1.68-2.48,3.08-4.89,4.2-2.41,1.12-5.2,1.66-8.38,1.63-3.49-.04-6.46-.73-8.91-2.08-2.45-1.35-4.05-3.05-4.79-5.1-.74-2.05-1.09-4.95-1.05-8.71l.04-3.28,12.1.13-.07,6.1c-.02,1.88.14,3.09.47,3.63.33.54.93.82,1.8.83.87,0,1.52-.32,1.95-1,.43-.68.65-1.68.67-3.03.03-2.95-.35-4.88-1.15-5.8-.82-.92-2.83-2.46-6.05-4.61-3.22-2.18-5.35-3.76-6.39-4.74-1.04-.98-1.9-2.33-2.57-4.05-.67-1.72-1-3.91-.97-6.57.04-3.84.56-6.64,1.56-8.4,1-1.76,2.6-3.13,4.79-4.11,2.2-.98,4.85-1.45,7.94-1.42,3.38.04,6.26.61,8.63,1.73,2.37,1.12,3.94,2.51,4.69,4.18.76,1.67,1.11,4.5,1.07,8.48l-.02,1.98Z"/>
    <path class="cls-1" d="M296.5,272.24l21.71-.94.43,10.02-8.69.38.41,9.49,8.13-.35.41,9.52-8.13.35.48,11.01,9.55-.41.43,10.02-22.57.97-2.16-50.06Z"/>
    <path class="cls-1" d="M334.27,270.26l9.18-.9c6.12-.6,10.29-.77,12.5-.51,2.21.26,4.1,1.29,5.65,3.1,1.56,1.81,2.54,4.83,2.96,9.09.38,3.88.16,6.54-.68,7.97-.83,1.43-2.65,2.42-5.46,2.96,2.63.38,4.44,1.07,5.43,2.05.99.98,1.63,1.91,1.94,2.78s.65,3.32,1.05,7.35l1.29,13.15-12.04,1.19-1.63-16.57c-.26-2.67-.64-4.3-1.12-4.9-.48-.59-1.62-.8-3.4-.63l2.21,22.49-12.97,1.28-4.91-49.87ZM348.08,277.51l1.09,11.09c1.46-.14,2.46-.44,3.01-.9.54-.46.71-1.79.49-3.98l-.27-2.74c-.16-1.58-.54-2.59-1.15-3.03-.61-.44-1.67-.58-3.17-.43Z"/>
    <path class="cls-1" d="M410.14,260.43l1.31,50.53-19.55,3.1-15.29-48.31,13.57-2.16c3.74,13.38,6.7,24.74,8.87,34.07-.85-9.64-1.49-18.22-1.92-25.74l-.57-9.35,13.57-2.16Z"/>
    <path class="cls-1" d="M436.47,255l10.27,49.05-12.75,2.67-10.27-49.05,12.75-2.67Z"/>
    <path class="cls-1" d="M487.87,264.75l-12.61,3.3-2.21-8.43c-.64-2.45-1.17-3.94-1.6-4.48-.43-.54-1.1-.69-2.02-.44-1.04.27-1.6.81-1.69,1.62-.09.81.19,2.45.83,4.9l5.89,22.52c.62,2.36,1.16,3.86,1.63,4.5.47.64,1.19.84,2.17.58.94-.25,1.46-.77,1.56-1.56.1-.8-.2-2.53-.89-5.19l-1.59-6.09,12.61-3.3.5,1.89c1.31,5.02,1.89,8.67,1.73,10.95-.16,2.28-1.24,4.53-3.26,6.75-2.01,2.21-4.8,3.79-8.35,4.72-3.69.97-6.91,1.09-9.66.38-2.75-.71-4.82-2.15-6.22-4.31-1.4-2.16-2.72-5.62-3.96-10.37l-3.71-14.16c-.92-3.49-1.48-6.14-1.7-7.95-.22-1.81.05-3.68.82-5.61.76-1.93,2.08-3.63,3.94-5.11,1.86-1.48,4.16-2.58,6.9-3.29,3.71-.97,6.97-1.06,9.76-.25,2.79.8,4.85,2.18,6.17,4.12,1.32,1.94,2.57,5.18,3.76,9.7l1.21,4.61Z"/>
    <path class="cls-1" d="M497.87,238.99l20.7-6.62,3.06,9.55-8.28,2.65,2.9,9.05,7.75-2.48,2.91,9.08-7.75,2.48,3.36,10.5,9.11-2.92,3.06,9.55-21.52,6.88-15.27-47.73Z"/>
  </g>
  <path class="cls-1" d="M292.6.35c.7.55,1.4,1.11,2.08,1.68.66-.45,1.32-.88,2-1.31-1.35-.13-2.72-.25-4.08-.37Z"/>
</svg>