<?xml version="1.0" encoding="UTF-8"?>
<svg version="1.1" xmlns="http://www.w3.org/2000/svg" width="500" height="500">
<path d="M0 0 C165 0 330 0 500 0 C500 165 500 330 500 500 C335 500 170 500 0 500 C0 335 0 170 0 0 Z " fill="#000000" transform="translate(0,0)"/>
<path d="M0 0 C0.78375 0.04125 1.5675 0.0825 2.375 0.125 C3.56331222 3.68993665 3.21138416 4.09138176 1.62329102 7.33544922 C1.1932225 8.22467072 0.76315399 9.11389221 0.3200531 10.03005981 C-0.17615036 11.02818695 -0.67235382 12.02631409 -1.18359375 13.0546875 C-1.71077499 14.13346161 -2.23795624 15.21223572 -2.78111267 16.32369995 C-4.71490507 20.26462234 -6.66791582 24.19561124 -8.625 28.125 C-9.20234768 29.28585869 -9.20234768 29.28585869 -9.79135895 30.47016907 C-16.72563148 44.41236702 -23.70422091 58.33230207 -30.6875 72.25 C-46.90170209 104.46369099 -46.90170209 104.46369099 -62.58724976 136.93634033 C-64.20018899 140.33809819 -65.8526453 143.72020356 -67.5078125 147.1015625 C-68.32765625 148.78378906 -68.32765625 148.78378906 -69.1640625 150.5 C-70.25658073 152.7388551 -71.35317748 154.97572304 -72.453125 157.2109375 C-72.98679688 158.30921875 -73.52046875 159.4075 -74.0703125 160.5390625 C-74.53969238 161.4976416 -75.00907227 162.4562207 -75.49267578 163.44384766 C-76.58509648 166.03051522 -77.11901832 168.37550312 -77.625 171.125 C-76.15757607 171.11833817 -76.15757607 171.11833817 -74.6605072 171.11154175 C-65.23962329 171.07021261 -55.81875873 171.04065296 -46.39780331 171.02137566 C-41.55951472 171.01113064 -36.72130171 170.99734668 -31.88305664 170.97412109 C-8.34760473 170.86410183 15.04864614 171.2845946 38.54467773 172.69189453 C46.23946308 173.15048319 53.77593895 173.46460685 61.44921875 172.50390625 C62.52220215 172.37443604 63.59518555 172.24496582 64.70068359 172.11157227 C66.9863617 171.82324816 69.27183697 171.53331249 71.55712891 171.24194336 C81.38395561 170.02311751 81.38395561 170.02311751 85.76171875 170.125 C92.20890798 170.24051515 95.7377124 169.40434679 100.44775391 165.06225586 C105.36817376 160.11133446 110.15893292 155.01420738 110.5625 147.75 C110.500625 146.88375 110.43875 146.0175 110.375 145.125 C94.10139338 136.98819669 61.74309355 146.35959899 44.375 149.125 C42.29830359 149.44743042 40.2214979 149.76915871 38.14453125 150.08984375 C35.1094648 150.56145457 32.07725937 151.04616331 29.046875 151.546875 C20.72598898 152.85697195 12.67515206 153.39575177 4.25 153.5 C2.51943359 153.55607422 2.51943359 153.55607422 0.75390625 153.61328125 C-8.69178862 153.71133345 -8.69178862 153.71133345 -12.25390625 150.921875 C-14.45486659 148.32568455 -16.02721889 146.08469515 -17.4375 143 C-17.83582031 142.15179688 -18.23414063 141.30359375 -18.64453125 140.4296875 C-21.85155465 132.89126595 -21.94672043 123.06372123 -19.82421875 115.1328125 C-11.76430282 97.7942992 7.68507637 85.94818703 23.375 76.125 C23.9947168 75.73666992 24.61443359 75.34833984 25.25292969 74.94824219 C59.14134612 53.94475689 101.38993858 31.09676424 142.25 30.875 C143.66345703 30.8440625 143.66345703 30.8440625 145.10546875 30.8125 C151.76462194 30.77565821 158.75636862 31.18693691 164.13134766 35.55102539 C171.395466 42.90560444 175.06121345 54.09038897 176.375 64.125 C174.5625 64.8125 174.5625 64.8125 172.375 65.125 C169.97823974 63.54774091 169.4321199 62.32295523 168.63671875 59.56640625 C168.44722656 58.61636719 168.25773437 57.66632813 168.0625 56.6875 C167.0409852 52.6388785 166.67577202 51.39961793 163.5 48.5 C139.15334666 37.78747253 103.27992706 52.40250468 80.375 61.125 C55.00795246 71.04432283 30.21580849 83.39632566 9.375 101.125 C8.54484375 101.80949219 7.7146875 102.49398437 6.859375 103.19921875 C-1.17428103 110.06232674 -11.28924352 119.90588582 -13.05859375 130.79296875 C-13.05988281 131.62441406 -13.06117188 132.45585937 -13.0625 133.3125 C-13.09150391 134.57126953 -13.09150391 134.57126953 -13.12109375 135.85546875 C-12.82442762 138.24857225 -12.82442762 138.24857225 -10.8828125 139.73974609 C-8.33260502 141.30439545 -6.9683748 141.52246718 -4.00390625 141.55859375 C-3.08399902 141.56987305 -2.1640918 141.58115234 -1.21630859 141.59277344 C-0.21680176 141.5827832 0.78270508 141.57279297 1.8125 141.5625 C2.86872559 141.55637695 3.92495117 141.55025391 5.01318359 141.54394531 C19.51933085 141.26908754 33.78283581 138.78542342 48.08789062 136.54296875 C62.48621732 134.31384392 76.68509756 132.72149885 91.25 132.5625 C92.54534668 132.53575195 93.84069336 132.50900391 95.17529297 132.48144531 C102.44375778 132.51028461 107.88888914 133.05198638 113.375 138.125 C117.92154614 143.9539053 119.21653825 148.88334191 118.375 156.125 C117.0678528 160.29598789 115.32755283 164.21989434 113.375 168.125 C114.9384314 168.10928955 114.9384314 168.10928955 116.53344727 168.09326172 C120.47530554 168.05650846 124.41714939 168.0339027 128.35913086 168.01513672 C130.05121423 168.00520308 131.74328102 167.99165157 133.43530273 167.97412109 C162.23430882 167.68365352 162.23430882 167.68365352 172.375 173.125 C172.375 175.105 172.375 177.085 172.375 179.125 C167.9997496 180.35734841 164.840728 179.78740148 160.4375 178.8125 C142.69074195 175.18054741 124.42891537 174.74030385 106.375 174.125 C106.09769043 174.72916748 105.82038086 175.33333496 105.53466797 175.95581055 C103.79888045 179.20264677 101.17812774 181.47148629 98.5 183.9375 C97.89212646 184.49864502 97.28425293 185.05979004 96.65795898 185.63793945 C79.11810739 201.47933242 58.94530112 214.58450699 38.375 226.125 C37.57320312 226.57520508 36.77140625 227.02541016 35.9453125 227.48925781 C10.08879241 241.85734744 -24.57360652 258.72790058 -54.9375 251.9375 C-65.48727736 248.91126904 -73.95398336 243.31984058 -79.625 233.75 C-81.24613732 227.87337721 -81.77803722 222.63160266 -79.1875 217 C-53.96989172 188.70707364 -5.21653317 181.4321498 30.375 177.125 C9.54752107 176.0406111 -11.27372874 175.84087414 -32.125 175.77490234 C-35.9943713 175.76138057 -39.86323783 175.73313315 -43.73242188 175.69287109 C-48.46861857 175.64366827 -53.20434703 175.61880666 -57.94078827 175.61167526 C-59.72858633 175.60497872 -61.51637443 175.58979836 -63.30402374 175.56578445 C-65.78430739 175.53424499 -68.26273352 175.53407277 -70.74316406 175.54150391 C-71.4713736 175.52509857 -72.19958313 175.50869324 -72.94985962 175.49179077 C-76.78944543 175.53893166 -78.46318671 175.99509546 -81.49275208 178.42724609 C-83.20411903 180.59249472 -84.52301688 182.37119166 -85.62280273 184.87255859 C-85.93810944 185.57405029 -86.25341614 186.27554199 -86.57827759 186.99829102 C-86.90178192 187.74908936 -87.22528625 188.4998877 -87.55859375 189.2734375 C-87.91335785 190.07080322 -88.26812195 190.86816895 -88.63363647 191.68969727 C-89.78720655 194.28858087 -90.92472305 196.89416891 -92.0625 199.5 C-92.85969599 201.30213755 -93.65812883 203.10372844 -94.45776367 204.90478516 C-96.07615467 208.55281621 -97.68919581 212.20313472 -99.29785156 215.85546875 C-102.34569491 222.76781753 -105.44302535 229.65756892 -108.55374146 236.54180908 C-109.41214748 238.44382506 -110.26685244 240.34746601 -111.12084961 242.25146484 C-114.14037429 248.95604589 -117.26924953 255.58180085 -120.625 262.125 C-122.275 262.125 -123.925 262.125 -125.625 262.125 C-126.72917377 258.85951207 -126.5768525 257.24540849 -125.15649414 254.12719727 C-124.80710281 253.34472626 -124.45771149 252.56225525 -124.09773254 251.756073 C-123.70583237 250.90973297 -123.31393219 250.06339294 -122.91015625 249.19140625 C-122.50766159 248.29737091 -122.10516693 247.40333557 -121.69047546 246.48220825 C-120.36633125 243.54591612 -119.02675752 240.61692542 -117.6875 237.6875 C-116.31162887 234.64441454 -114.94007535 231.59940843 -113.56887817 228.55421448 C-112.63595173 226.48271475 -111.70175637 224.41178605 -110.7663269 222.34141541 C-106.19436564 212.21148586 -101.76711674 202.02142819 -97.375 191.8125 C-96.68373147 190.20839043 -95.99240826 188.60430443 -95.30102539 187.00024414 C-93.73982799 183.37624278 -92.18142702 179.75105252 -90.625 176.125 C-91.273479 176.15529297 -91.92195801 176.18558594 -92.59008789 176.21679688 C-104.94153402 176.78543362 -117.25883866 177.3033581 -129.625 177.125 C-129.13 175.145 -129.13 175.145 -128.625 173.125 C-108.825 172.135 -108.825 172.135 -88.625 171.125 C-84.0203528 161.9157056 -79.43933285 152.74275363 -75.09936523 143.41308594 C-62.37704481 116.11199749 -49.14039974 89.07273683 -35.6875 62.125 C-35.20876434 61.16484985 -34.73002869 60.20469971 -34.23678589 59.2154541 C-28.19107002 47.09827212 -22.01387449 35.06160223 -15.66891479 23.09844971 C-14.2768331 20.46681423 -12.90250385 17.82613154 -11.53125 15.18359375 C-11.12132812 14.39662109 -10.71140625 13.60964844 -10.2890625 12.79882812 C-9.47916058 11.24289238 -8.67207641 9.68548802 -7.8671875 8.12695312 C-7.46757812 7.36189453 -7.06796875 6.59683594 -6.65625 5.80859375 C-6.31142578 5.14400146 -5.96660156 4.47940918 -5.61132812 3.79467773 C-3.99160502 1.05277518 -3.25140278 0.1548287 0 0 Z " fill="#F7CF2F" transform="translate(292.625,100.875)"/>
<path d="M0 0 C3.05460079 2.80925133 4.71179657 4.77089714 5.6640625 8.83203125 C5.16675798 46.77636592 -22.53464219 90.99355559 -38 125 C-38.32393738 125.71232788 -38.64787476 126.42465576 -38.98162842 127.15856934 C-51.56685054 154.82134439 -51.56685054 154.82134439 -55.96850586 164.20507812 C-56.44587692 165.22306992 -56.44587692 165.22306992 -56.93289185 166.2616272 C-57.80669671 168.12173354 -58.68316379 169.98058862 -59.55981445 171.83935547 C-60.75102136 174.45358917 -61.8272353 177.0536015 -62.8125 179.75 C-65.0259198 185.46174855 -67.99597479 190.76239284 -70.88305664 196.15332031 C-74.18510202 202.35647816 -77.25789622 208.64226011 -80.25 215 C-86.09363154 227.39442024 -92.4096445 239.52786494 -98.77587891 251.65942383 C-99.5293189 253.10003596 -100.27294634 254.54589268 -101 256 C-99.34230591 255.98428955 -99.34230591 255.98428955 -97.65112305 255.96826172 C-93.55301144 255.93207593 -89.45491397 255.90910471 -85.35668945 255.89013672 C-83.58257676 255.88007589 -81.80848065 255.86642578 -80.03442383 255.84912109 C-77.48514716 255.82487622 -74.93608963 255.81351782 -72.38671875 255.8046875 C-71.59287277 255.79436493 -70.79902679 255.78404236 -69.98112488 255.77340698 C-66.11776957 255.7726189 -64.29160554 255.80559631 -61 258 C-60.6875 260.5 -60.6875 260.5 -61 263 C-63.57556337 265.57556337 -65.29160792 265.24004047 -68.801651 265.25994873 C-69.61395676 265.25432922 -70.42626251 265.24870972 -71.26318359 265.24291992 C-72.11892471 265.24481827 -72.97466583 265.24671661 -73.8563385 265.24867249 C-76.70379637 265.25239442 -79.55100198 265.2416408 -82.3984375 265.23046875 C-84.38790863 265.22927569 -86.37738033 265.22882405 -88.36685181 265.2290802 C-92.55515024 265.22751195 -96.74336362 265.21920795 -100.93164062 265.20581055 C-106.24318991 265.18901808 -111.55464396 265.18499056 -116.86621666 265.18575573 C-120.98807652 265.18548034 -125.10991644 265.17993774 -129.23176956 265.17275429 C-131.18574498 265.16961555 -133.13972262 265.16761171 -135.09370041 265.16686058 C-145.15208064 265.15877746 -155.18842102 265.02546512 -165.23681641 264.55200195 C-166.09009207 264.51341411 -166.94336773 264.47482626 -167.82250023 264.43506908 C-173.75237088 264.12381456 -173.75237088 264.12381456 -176 263 C-175.625 260.5625 -175.625 260.5625 -175 258 C-172.42972809 256.71486405 -170.46361072 256.78899878 -167.5859375 256.68359375 C-166.44664795 256.64161865 -165.3073584 256.59964355 -164.13354492 256.55639648 C-162.27306519 256.49754272 -162.27306519 256.49754272 -160.375 256.4375 C-159.10438721 256.3950415 -157.83377441 256.35258301 -156.5246582 256.30883789 C-141.68572518 255.84464019 -126.84427452 255.90491004 -112 256 C-111.60425781 254.75605469 -111.20851563 253.51210938 -110.80078125 252.23046875 C-108.87625955 246.4703697 -106.56031184 240.90024179 -104.1875 235.3125 C-103.72045654 234.20777344 -103.25341309 233.10304688 -102.7722168 231.96484375 C-98.24327795 221.36510546 -93.37654166 210.93038862 -88.4206543 200.5246582 C-88.12601288 199.90287186 -87.83137146 199.28108551 -87.52780151 198.64045715 C-86.72531834 196.94821188 -85.91811111 195.25820912 -85.1105957 193.56835938 C-83.86770092 191.16041141 -83.86770092 191.16041141 -84 189 C-90.69524252 188.67072578 -96.96730668 189.32200756 -103.5625 190.375 C-104.35309814 190.50108643 -105.14369629 190.62717285 -105.95825195 190.75708008 C-110.68841604 191.54209437 -115.35162339 192.49216477 -120.01513672 193.60742188 C-122.69628739 194.13771588 -125.27836047 194.13957126 -128 194 C-127.67 192.68 -127.34 191.36 -127 190 C-116.08142715 186.46096549 -105.50945578 184.87231302 -94.12915039 183.71557617 C-92.01839474 183.49679712 -89.90975376 183.26259649 -87.80078125 183.02734375 C-86.56497314 182.90093506 -85.32916504 182.77452637 -84.0559082 182.64428711 C-80.81673365 181.96136136 -79.87670342 181.64093368 -78 179 C-77.00556385 177.29752112 -76.07159152 175.55914549 -75.1796875 173.80078125 C-74.64859375 172.7636499 -74.1175 171.72651855 -73.5703125 170.65795898 C-73.01085937 169.55395752 -72.45140625 168.44995605 -71.875 167.3125 C-68.01746508 159.79601141 -64.15469826 152.2948916 -60 144.9375 C-59.66339355 144.3391333 -59.32678711 143.7407666 -58.97998047 143.12426758 C-57.67811224 140.83675471 -56.37817326 138.55984473 -54.90429688 136.37792969 C-50.11904888 129.22370801 -46.93517204 121.23259144 -43.5 113.375 C-42.79061496 111.76381543 -42.08081105 110.15281523 -41.37060547 108.54199219 C-39.57763729 104.46995616 -37.79295612 100.39435603 -36.01208496 96.3170166 C-35.05897293 94.13500966 -34.10441361 91.95364228 -33.14941406 89.77246094 C-29.89165822 82.32692948 -26.66247364 74.86980775 -23.4609375 67.39990234 C-22.05719866 64.13311305 -20.63850255 60.87313451 -19.21875 57.61328125 C-14.96760724 47.7583594 -11.09156043 37.8693883 -7.875 27.625 C-7.43148193 26.24356812 -7.43148193 26.24356812 -6.97900391 24.83422852 C-5.1927536 18.86714861 -4.35172573 13.23585692 -5 7 C-6.19054508 5.60880032 -6.19054508 5.60880032 -9.5625 5.5 C-24.71412887 5.80921692 -39.85400413 18.12345903 -52 26 C-52.6192334 26.39896484 -53.2384668 26.79792969 -53.87646484 27.20898438 C-66.69783952 35.49368273 -79.02531194 44.53979608 -91 54 C-91.63196289 54.49902832 -92.26392578 54.99805664 -92.91503906 55.51220703 C-101.21495967 62.0949726 -109.23764321 68.8714502 -116.9375 76.1484375 C-119.16582497 78.25094323 -121.45440131 80.26438731 -123.77734375 82.26171875 C-128.58267661 86.44453998 -133.07007696 90.92356496 -137.5625 95.4375 C-138.37396484 96.24509766 -139.18542969 97.05269531 -140.02148438 97.88476562 C-147.26627172 105.14124755 -153.93195624 112.65555263 -160.0625 120.875 C-160.58054199 121.56827393 -161.09858398 122.26154785 -161.63232422 122.97583008 C-171.7933108 136.64020972 -171.7933108 136.64020972 -174 153 C-173.48474579 156.38800816 -173.48474579 156.38800816 -172 159 C-169.74858021 160.36784258 -169.74858021 160.36784258 -167 161 C-166.09894531 161.34160156 -165.19789063 161.68320313 -164.26953125 162.03515625 C-158.32592838 163.78912269 -152.13969787 163.18919546 -146 163 C-144.90945312 162.97035156 -143.81890625 162.94070313 -142.6953125 162.91015625 C-135.71319097 162.55321488 -129.26002014 161.26055201 -122.55493164 159.37207031 C-118.59382222 158.27748056 -115.1067566 157.80323114 -111 158 C-113.7146786 160.20790788 -116.03040633 161.53577115 -119.37890625 162.53515625 C-120.21147949 162.7863623 -121.04405273 163.03756836 -121.90185547 163.29638672 C-122.77986816 163.5492041 -123.65788086 163.80202148 -124.5625 164.0625 C-125.4714502 164.32562988 -126.38040039 164.58875977 -127.31689453 164.85986328 C-129.87396973 165.58855872 -132.43532782 166.29858345 -135 167 C-136.47919922 167.41185547 -136.47919922 167.41185547 -137.98828125 167.83203125 C-148.64101441 170.25548446 -164.07265365 171.57650319 -174.125 166.8125 C-178.5191595 164.00754827 -181.33647347 160.99057959 -183 156 C-184.88706654 143.1796201 -179.68595977 133.41902338 -172.40625 123.29296875 C-167.20209607 116.37392758 -161.39080775 109.96598162 -155.47265625 103.65625 C-153.48316736 101.51904234 -151.57155725 99.35375946 -149.6875 97.125 C-142.44162815 88.77649547 -134.41116266 80.8378037 -125.9765625 73.6953125 C-123.49139806 71.5637683 -121.09559854 69.34316401 -118.6875 67.125 C-113.28288918 62.20769016 -107.71930545 57.5447008 -102 53 C-101.3620752 52.48953125 -100.72415039 51.9790625 -100.06689453 51.453125 C-88.7369339 42.40817625 -77.08016324 34.01172772 -65 26 C-63.89543457 25.26305908 -63.89543457 25.26305908 -62.76855469 24.51123047 C-19.22182654 -4.47121165 -19.22182654 -4.47121165 0 0 Z " fill="#F5CD2F" transform="translate(214,94)"/>
<path d="M0 0 C-3.83414185 4.07008904 -7.92033486 7.30383684 -12.5 10.5 C-13.23484619 11.01481934 -13.96969238 11.52963867 -14.72680664 12.06005859 C-49.93041755 36.43037632 -94.54714049 64.81649618 -138.625 65.5 C-139.44242676 65.51869141 -140.25985352 65.53738281 -141.10205078 65.55664062 C-147.48483363 65.48838961 -152.70671789 63.83300649 -157.60009766 59.62353516 C-159.86846398 57.19534672 -160.95043229 55.2643611 -161.5625 52 C-160.45196951 46.0771707 -157.47966557 43.13133734 -152.8125 39.625 C-133.75938768 26.97863597 -110.89915023 20.62737602 -89 15 C-87.73800781 14.66484375 -86.47601563 14.3296875 -85.17578125 13.984375 C-81.12960359 12.93388223 -77.06881284 11.9577737 -73 11 C-71.91557617 10.7407373 -70.83115234 10.48147461 -69.71386719 10.21435547 C-54.41483708 6.58898329 -39.17625472 3.48340632 -23.5625 1.5625 C-22.89081787 1.47887207 -22.21913574 1.39524414 -21.52709961 1.30908203 C-14.31460583 0.42606456 -7.26685331 -0.19768371 0 0 Z " fill="#020100" transform="translate(380,277)"/>
<path d="M0 0 C-2.62198774 2.15377564 -4.64404172 3.40072174 -8 4 C-8 3.34 -8 2.68 -8 2 C-8.66 1.67 -9.32 1.34 -10 1 C-6.61981469 -0.04005702 -3.5219721 -0.08004482 0 0 Z " fill="#D5B329" transform="translate(103,252)"/>
</svg>
